<?xml version="1.0" standalone="no"?>
<!DOCTYPE svg PUBLIC "-//W3C//DTD SVG 20010904//EN"
 "http://www.w3.org/TR/2001/REC-SVG-20010904/DTD/svg10.dtd">
<svg version="1.0" xmlns="http://www.w3.org/2000/svg"
 width="225.000000pt" height="225.000000pt" viewBox="0 0 225.000000 225.000000"
 preserveAspectRatio="xMidYMid meet">
<metadata>
Created by potrace 1.10, written by Peter Selinger 2001-2011
</metadata>
<g transform="translate(0.000000,225.000000) scale(0.100000,-0.100000)"
fill="#05adf5" stroke="none">
<path d="M1020 2159 c-296 -31 -541 -166 -712 -393 -311 -412 -261 -1008 117
-1381 430 -424 1113 -390 1488 75 171 212 260 517 228 783 -30 241 -129 453
-287 611 -231 231 -523 337 -834 305z m294 -56 c128 -29 249 -81 363 -157 49
-32 70 -54 95 -101 32 -58 33 -65 34 -175 1 -152 -1 -141 43 -191 59 -68 70
-97 69 -181 0 -41 3 -85 7 -99 9 -29 44 -69 61 -69 7 0 28 -25 49 -55 20 -30
43 -55 51 -55 33 0 -3 -181 -61 -307 -89 -192 -227 -348 -399 -451 -165 -99
-321 -137 -530 -129 -159 6 -260 30 -388 92 -71 35 -73 37 -74 73 -1 24 -14
58 -37 96 -21 33 -37 68 -37 77 0 9 12 40 26 67 23 45 25 54 14 87 -8 25 -28
48 -66 76 -35 25 -56 49 -60 67 -3 15 -7 32 -9 39 -2 7 0 37 5 68 5 31 7 62 3
70 -9 26 -46 16 -116 -31 l-68 -47 -27 20 c-36 27 -60 95 -77 217 -8 56 -20
130 -26 166 -10 58 -9 73 11 140 48 163 118 285 231 404 81 86 106 95 196 77
103 -20 111 -47 62 -200 -20 -61 -33 -126 -36 -178 -8 -111 10 -159 78 -208
38 -29 56 -52 84 -111 19 -40 35 -78 35 -83 0 -18 59 -59 96 -66 42 -7 95 -34
198 -100 47 -30 86 -47 118 -51 26 -4 48 -11 48 -17 0 -5 -18 -36 -40 -69 -76
-114 -51 -203 69 -248 33 -12 62 -29 65 -37 10 -25 -21 -68 -104 -143 -111
-100 -134 -151 -90 -198 26 -28 37 -28 110 3 94 39 166 91 275 194 76 72 114
101 152 114 67 24 93 53 110 127 7 34 27 87 43 117 31 57 38 110 20 144 -9 16
-22 19 -81 19 -70 0 -71 0 -117 45 -41 40 -51 45 -91 45 -31 0 -64 9 -101 29
-66 34 -95 30 -157 -24 -23 -19 -45 -35 -50 -35 -14 0 -69 61 -87 96 -8 18
-26 34 -40 38 -18 4 -26 14 -28 33 -3 27 -6 28 -58 28 -48 0 -56 3 -69 26 -13
24 -13 28 2 44 17 16 95 45 123 45 7 0 28 -21 45 -47 44 -64 99 -103 91 -64
-7 31 20 118 47 151 15 19 33 52 40 73 21 62 57 97 100 97 53 0 76 19 68 58
-6 30 -5 31 23 25 42 -8 60 11 60 62 0 50 -5 55 -109 111 -73 40 -84 52 -113
119 -11 25 -20 31 -57 36 -38 5 -52 14 -100 66 -61 66 -98 89 -157 99 -33 5
-43 2 -61 -18 -11 -12 -26 -42 -33 -66 -14 -54 -33 -62 -68 -29 -40 38 -74 47
-188 50 -57 1 -104 3 -104 4 0 0 30 15 66 32 80 38 210 79 284 91 74 12 257 3
344 -17z m-191 -97 c18 -7 55 -37 82 -65 57 -60 77 -72 125 -80 29 -5 35 -11
41 -39 10 -47 43 -78 132 -123 75 -38 78 -41 75 -72 -3 -30 -5 -32 -43 -32
-40 0 -40 0 -38 -37 2 -32 -1 -38 -17 -39 -11 -1 -24 -3 -30 -4 -5 -1 -16 -3
-24 -4 -28 -2 -73 -51 -91 -98 -10 -26 -31 -63 -46 -81 -16 -18 -31 -45 -35
-60 -17 -80 -17 -80 -57 -23 -42 57 -61 63 -138 36 -93 -33 -112 -84 -54 -142
30 -30 40 -34 68 -29 27 5 34 2 42 -16 6 -13 21 -28 33 -34 13 -7 32 -25 42
-40 9 -16 29 -40 44 -53 31 -29 33 -41 6 -41 -29 0 -65 18 -162 81 -50 33
-108 62 -137 69 -61 14 -92 47 -117 122 -13 40 -33 67 -85 118 -42 41 -70 78
-74 96 -3 16 -8 37 -10 46 -4 25 23 172 45 247 11 35 20 80 20 101 0 27 5 39
18 44 9 3 38 21 65 40 42 31 45 35 25 38 -13 2 -30 -4 -39 -12 -10 -8 -29 -26
-43 -38 l-26 -24 -30 26 c-30 24 -56 32 -130 39 l-35 3 30 13 c17 8 81 16 142
19 124 5 152 -2 215 -51 47 -38 70 -27 93 45 10 29 20 56 22 61 7 12 61 8 96
-7z m781 -276 c128 -164 206 -393 206 -601 0 -93 -15 -104 -51 -39 -13 23 -38
50 -56 61 -47 29 -54 48 -51 141 2 93 -15 139 -71 192 -34 33 -56 86 -46 115
12 38 7 148 -9 185 -34 80 -18 70 78 -54z m-1751 -602 c8 -134 47 -238 102
-274 31 -21 68 -9 129 41 47 38 70 45 62 18 -23 -83 -16 -160 19 -201 12 -15
20 -33 18 -40 -3 -7 0 -35 7 -62 9 -37 15 -47 27 -43 12 5 12 7 1 15 -10 8
-10 11 0 15 9 4 7 14 -9 39 -26 42 -18 55 18 28 52 -39 55 -53 27 -114 -32
-68 -28 -102 21 -182 57 -92 43 -102 -45 -31 -196 156 -317 348 -375 593 -19
81 -33 306 -18 297 5 -4 13 -48 16 -99z m1345 -143 c27 -18 50 -25 86 -25 45
0 53 -4 103 -51 l54 -51 63 7 c63 6 63 6 69 -20 3 -19 -6 -48 -29 -94 -19 -36
-39 -88 -44 -115 -13 -63 -30 -81 -110 -119 -47 -23 -88 -54 -148 -115 -120
-121 -292 -224 -334 -201 -37 20 -18 49 113 176 113 108 114 164 4 214 -110
50 -123 97 -55 209 35 58 41 75 33 92 -8 19 -4 27 36 58 88 69 103 73 159 35z"/>
<path d="M939 1991 c11 -7 11 -9 0 -13 -8 -3 -10 -9 -6 -14 9 -10 28 16 21 28
-3 4 -11 8 -17 8 -8 0 -7 -3 2 -9z"/>
<path d="M642 1787 c-12 -7 -19 -17 -15 -22 4 -4 0 -5 -9 -2 -11 4 -15 2 -12
-7 3 -7 -5 -21 -17 -32 -21 -17 -22 -18 -16 -1 4 11 3 16 -4 12 -6 -4 -8 -14
-5 -22 8 -21 -12 -43 -31 -36 -12 5 -14 1 -9 -15 6 -17 4 -21 -8 -16 -12 5
-15 2 -10 -9 3 -9 -6 -33 -20 -54 -14 -21 -26 -44 -26 -51 0 -7 -4 -10 -10 -7
-6 3 -7 -1 -4 -9 3 -9 1 -16 -5 -16 -6 0 -11 -9 -11 -19 0 -11 -3 -27 -6 -36
-6 -13 -9 -14 -16 -3 -7 9 -8 7 -3 -8 6 -24 -18 -78 -30 -66 -4 4 -5 -3 -1
-14 4 -12 -1 -43 -9 -69 -9 -26 -14 -49 -11 -52 3 -3 0 -15 -6 -26 -6 -11 -12
-74 -14 -139 -3 -100 -2 -118 11 -118 12 0 15 18 15 100 0 157 35 298 112 454
39 80 133 221 163 246 14 12 40 51 33 50 -2 -1 -13 -6 -26 -13z"/>
<path d="M582 1463 c-51 -95 -112 -333 -112 -438 0 -76 16 -62 25 22 4 38 13
97 21 132 7 36 10 69 7 74 -4 6 -1 7 7 2 10 -6 12 -4 7 8 -7 17 26 102 44 113
6 3 8 15 5 27 -3 11 0 29 5 39 6 11 9 24 6 31 -2 7 -9 3 -15 -10z"/>
<path d="M857 1822 c-70 -60 -125 -121 -147 -161 l-12 -24 31 22 c17 12 31 27
31 33 0 5 7 7 16 4 8 -3 13 -2 10 3 -6 9 60 81 74 81 6 0 10 6 10 14 0 8 9 17
19 21 22 7 55 52 43 59 -4 2 -38 -21 -75 -52z"/>
<path d="M1170 1863 c-44 -16 -95 -90 -85 -123 3 -11 26 -36 50 -55 34 -28 45
-45 50 -78 7 -40 51 -97 74 -97 7 0 11 21 10 58 -1 31 3 70 10 85 16 41 13 78
-9 112 -11 17 -20 41 -20 56 0 42 -33 59 -80 42z m60 -58 c3 -16 13 -45 22
-64 13 -30 14 -39 1 -80 -8 -25 -12 -61 -11 -79 3 -19 0 -31 -6 -29 -11 4 -20
28 -31 81 -4 17 -25 47 -51 71 -40 37 -44 43 -35 67 13 33 59 70 85 66 14 -2
23 -13 26 -33z"/>
<path d="M352 845 c-9 -11 -9 -15 -1 -15 7 0 10 -11 7 -30 -3 -19 0 -31 9 -35
8 -2 12 -9 9 -13 -7 -11 16 -75 34 -98 8 -10 10 -15 5 -12 -6 4 -11 -2 -11
-12 0 -10 4 -16 8 -14 4 3 8 0 8 -7 0 -14 46 -59 61 -59 14 0 11 9 -10 32 -23
24 -65 136 -82 221 -13 61 -17 65 -37 42z"/>
</g>
</svg>
